<svg width="32" height="32" viewBox="0 0 32 32" fill="white" xmlns="http://www.w3.org/2000/svg">
<path d="M13.4786 15.9955C14.1067 15.9955 14.7122 16.2295 15.1771 16.6517C15.642 17.074 15.933 17.6542 15.9933 18.2794L16.005 18.5219V26.9433C16.0047 27.5922 15.7548 28.216 15.3071 28.6855C14.8593 29.1551 14.2481 29.4344 13.6 29.4656C12.952 29.4968 12.3167 29.2774 11.826 28.853C11.3352 28.4286 11.0266 27.8317 10.964 27.1859L10.9522 26.9433V24.6207L4.31611 31.2568C3.85835 31.7162 3.24144 31.982 2.59312 31.9991C1.9448 32.0162 1.31473 31.7834 0.833362 31.3488C0.351992 30.9141 0.0561967 30.3111 0.0072194 29.6644C-0.0417579 29.0177 0.159835 28.3769 0.570257 27.8748L0.743739 27.6827L7.38151 21.0483H5.05719C4.40838 21.048 3.78456 20.7981 3.31499 20.3504C2.84543 19.9026 2.56611 19.2914 2.53493 18.6433C2.50375 17.9953 2.7231 17.3601 3.14751 16.8693C3.57192 16.3786 4.16887 16.0699 4.81465 16.0073L5.05719 15.9955H13.4786ZM27.694 0.735874C28.1523 0.279679 28.768 0.0165809 29.4145 0.000757309C30.061 -0.0150663 30.6889 0.21759 31.1689 0.650816C31.649 1.08404 31.9447 1.68485 31.9951 2.32953C32.0455 2.97421 31.8467 3.61367 31.4398 4.11623L31.2663 4.30824L24.6286 10.9426H26.9529C27.6017 10.943 28.2255 11.1929 28.6951 11.6406C29.1647 12.0884 29.444 12.6996 29.4751 13.3477C29.5063 13.9957 29.287 14.6309 28.8626 15.1217C28.4382 15.6124 27.8412 15.9211 27.1954 15.9837L26.9529 15.9955H18.5315C17.9034 15.9955 17.2979 15.7615 16.833 15.3393C16.3681 14.917 16.0771 14.3367 16.0168 13.7116L16.005 13.4691V5.04764C16.0054 4.39883 16.2553 3.77501 16.703 3.30544C17.1508 2.83588 17.762 2.55657 18.4101 2.52539C19.0581 2.49421 19.6933 2.71355 20.1841 3.13796C20.6748 3.56237 20.9835 4.15932 21.0461 4.80511L21.0579 5.04764V7.37027L27.694 0.73419V0.735874Z" fill="white"/>
</svg>
