<svg width="64" height="64" viewBox="0 0 64 64" fill="none" xmlns="http://www.w3.org/2000/svg">
<rect width="64" height="64" rx="32" fill="white" fill-opacity="0.2"/>
<g clip-path="url(#clip0_393_1988)">
<path d="M29.4786 31.9955C30.1067 31.9955 30.7122 32.2295 31.1771 32.6517C31.642 33.074 31.933 33.6542 31.9933 34.2794L32.005 34.5219V42.9433C32.0047 43.5922 31.7548 44.216 31.3071 44.6855C30.8593 45.1551 30.2481 45.4344 29.6 45.4656C28.952 45.4968 28.3167 45.2774 27.826 44.853C27.3352 44.4286 27.0266 43.8317 26.964 43.1859L26.9522 42.9433V40.6207L20.3161 47.2568C19.8583 47.7162 19.2414 47.982 18.5931 47.9991C17.9448 48.0162 17.3147 47.7834 16.8334 47.3488C16.352 46.9141 16.0562 46.3111 16.0072 45.6644C15.9582 45.0177 16.1598 44.3769 16.5703 43.8748L16.7437 43.6827L23.3815 37.0483H21.0572C20.4084 37.048 19.7846 36.7981 19.315 36.3504C18.8454 35.9026 18.5661 35.2914 18.5349 34.6433C18.5038 33.9953 18.7231 33.3601 19.1475 32.8693C19.5719 32.3786 20.1689 32.0699 20.8147 32.0073L21.0572 31.9955H29.4786ZM43.694 16.7359C44.1523 16.2797 44.768 16.0166 45.4145 16.0008C46.061 15.9849 46.6889 16.2176 47.1689 16.6508C47.649 17.084 47.9447 17.6849 47.9951 18.3295C48.0455 18.9742 47.8467 19.6137 47.4398 20.1162L47.2663 20.3082L40.6286 26.9426H42.9529C43.6017 26.943 44.2255 27.1929 44.6951 27.6406C45.1647 28.0884 45.444 28.6996 45.4751 29.3477C45.5063 29.9957 45.287 30.6309 44.8626 31.1217C44.4382 31.6124 43.8412 31.9211 43.1954 31.9837L42.9529 31.9955H34.5315C33.9034 31.9955 33.2979 31.7615 32.833 31.3393C32.3681 30.917 32.0771 30.3367 32.0168 29.7116L32.005 29.4691V21.0476C32.0054 20.3988 32.2553 19.775 32.703 19.3054C33.1508 18.8359 33.762 18.5566 34.4101 18.5254C35.0581 18.4942 35.6933 18.7135 36.1841 19.138C36.6748 19.5624 36.9835 20.1593 37.0461 20.8051L37.0579 21.0476V23.3703L43.694 16.7342V16.7359Z" fill="white"/>
</g>
<defs>
<clipPath id="clip0_393_1988">
<rect width="32.0028" height="32" fill="white" transform="translate(16 16)"/>
</clipPath>
</defs>
</svg>
