<svg width="56" height="56" viewBox="0 0 56 56" fill="none" xmlns="http://www.w3.org/2000/svg">
<rect width="56" height="56" rx="28" fill="#883B0A" fill-opacity="0.5"/>
<g clip-path="url(#clip0_393_1872)">
<path d="M20.7222 38.2222H22.9444C23.338 38.2222 23.6681 38.3556 23.9347 38.6222C24.2014 38.8889 24.3343 39.2185 24.3333 39.6111C24.3333 40.0046 24.2 40.3347 23.9333 40.6014C23.6667 40.868 23.337 41.0009 22.9444 41H17.3889C16.9954 41 16.6653 40.8667 16.3986 40.6C16.1319 40.3333 15.9991 40.0037 16 39.6111V34.0556C16 33.662 16.1333 33.3319 16.4 33.0653C16.6667 32.7986 16.9963 32.6657 17.3889 32.6667C17.7824 32.6667 18.1125 32.8 18.3792 33.0667C18.6458 33.3333 18.7787 33.663 18.7778 34.0556V36.2778L22.1111 32.9444C22.3657 32.6898 22.6898 32.5625 23.0833 32.5625C23.4769 32.5625 23.8009 32.6898 24.0556 32.9444C24.3102 33.1991 24.4375 33.5231 24.4375 33.9167C24.4375 34.3102 24.3102 34.6343 24.0556 34.8889L20.7222 38.2222ZM38.2222 20.7222L34.8889 24.0556C34.6343 24.3102 34.3102 24.4375 33.9167 24.4375C33.5231 24.4375 33.1991 24.3102 32.9444 24.0556C32.6898 23.8009 32.5625 23.4769 32.5625 23.0833C32.5625 22.6898 32.6898 22.3657 32.9444 22.1111L36.2778 18.7778H34.0556C33.662 18.7778 33.3319 18.6444 33.0653 18.3778C32.7986 18.1111 32.6657 17.7815 32.6667 17.3889C32.6667 16.9954 32.8 16.6653 33.0667 16.3986C33.3333 16.1319 33.663 15.9991 34.0556 16H39.6111C40.0046 16 40.3347 16.1333 40.6014 16.4C40.868 16.6667 41.0009 16.9963 41 17.3889V22.9444C41 23.338 40.8667 23.6681 40.6 23.9347C40.3333 24.2014 40.0037 24.3343 39.6111 24.3333C39.2176 24.3333 38.8875 24.2 38.6208 23.9333C38.3542 23.6667 38.2213 23.337 38.2222 22.9444V20.7222Z" fill="white"/>
</g>
<defs>
<clipPath id="clip0_393_1872">
<rect width="30" height="30" fill="white" transform="translate(16 16)"/>
</clipPath>
</defs>
</svg>
