<svg width="40" height="40" viewBox="0 0 40 40" fill="none" xmlns="http://www.w3.org/2000/svg">
<path d="M40 20C40 31.0457 31.0457 40 20 40C8.9543 40 0 31.0457 0 20C0 8.9543 8.9543 0 20 0C31.0457 0 40 8.9543 40 20ZM1.10243 20C1.10243 30.4368 9.56316 38.8976 20 38.8976C30.4368 38.8976 38.8976 30.4368 38.8976 20C38.8976 9.56316 30.4368 1.10243 20 1.10243C9.56316 1.10243 1.10243 9.56316 1.10243 20Z" fill="#D9D9D9"/>
<path d="M30 20.0251C30 14.4912 25.52 10 20 10C14.48 10 10 14.4912 10 20.0251C10 24.8772 13.44 28.9173 18 29.8496V23.0326H16V20.0251H18V17.5188C18 15.584 19.57 14.01 21.5 14.01H24V17.0175H22C21.45 17.0175 21 17.4687 21 18.0201V20.0251H24V23.0326H21V30C26.05 29.4987 30 25.2281 30 20.0251Z" fill="#F4F0E5"/>
</svg>
