<svg width="40" height="40" viewBox="0 0 40 40" fill="none" xmlns="http://www.w3.org/2000/svg">
<path d="M40 20C40 31.0457 31.0457 40 20 40C8.9543 40 0 31.0457 0 20C0 8.9543 8.9543 0 20 0C31.0457 0 40 8.9543 40 20ZM1.10243 20C1.10243 30.4368 9.56316 38.8976 20 38.8976C30.4368 38.8976 38.8976 30.4368 38.8976 20C38.8976 9.56316 30.4368 1.10243 20 1.10243C9.56316 1.10243 1.10243 9.56316 1.10243 20Z" fill="#D9D9D9"/>
<path d="M21.028 10.0012C21.7577 9.99843 22.4874 10.0058 23.2169 10.0232L23.4109 10.0302C23.6349 10.0382 23.8559 10.0482 24.1229 10.0602C25.1868 10.1102 25.9128 10.2782 26.5497 10.5252C27.2097 10.7792 27.7657 11.1232 28.3216 11.6792C28.83 12.1788 29.2234 12.7831 29.4746 13.4501C29.7216 14.0871 29.8896 14.8141 29.9396 15.878C29.9516 16.144 29.9616 16.366 29.9696 16.59L29.9756 16.784C29.9933 17.5132 30.001 18.2425 29.9986 18.9719L29.9996 19.7179V21.0279C30.002 21.7576 29.9943 22.4873 29.9766 23.2168L29.9706 23.4108C29.9626 23.6348 29.9526 23.8558 29.9406 24.1227C29.8906 25.1867 29.7206 25.9127 29.4746 26.5497C29.2242 27.2174 28.8307 27.8222 28.3216 28.3216C27.8216 28.8299 27.217 29.2233 26.5497 29.4746C25.9128 29.7216 25.1868 29.8896 24.1229 29.9396C23.8559 29.9516 23.6349 29.9615 23.4109 29.9696L23.2169 29.9756C22.4874 29.9933 21.7577 30.001 21.028 29.9986L20.282 29.9995H18.9731C18.2434 30.002 17.5137 29.9943 16.7842 29.9766L16.5902 29.9706C16.3529 29.9619 16.1155 29.9519 15.8783 29.9406C14.8143 29.8906 14.0884 29.7206 13.4504 29.4746C12.7831 29.2239 12.1787 28.8304 11.6795 28.3216C11.1706 27.8219 10.7768 27.2172 10.5256 26.5497C10.2786 25.9127 10.1106 25.1867 10.0606 24.1227C10.0494 23.8855 10.0394 23.6481 10.0306 23.4108L10.0256 23.2168C10.0071 22.4873 9.99881 21.7576 10.0006 21.0279V18.9719C9.99779 18.2426 10.0051 17.5132 10.0226 16.784L10.0296 16.59C10.0376 16.366 10.0476 16.144 10.0596 15.878C10.1096 14.8131 10.2776 14.0881 10.5245 13.4501C10.7759 12.7828 11.1705 12.1786 11.6805 11.6802C12.1794 11.1709 12.7834 10.7768 13.4504 10.5252C14.0884 10.2782 14.8133 10.1102 15.8783 10.0602L16.5902 10.0302L16.7842 10.0252C17.5134 10.0068 18.2427 9.99847 18.9721 10.0002L21.028 10.0012ZM20.0001 15.0011C19.3376 14.9917 18.6799 15.1141 18.0651 15.3611C17.4504 15.6082 16.8909 15.9749 16.4191 16.4401C15.9473 16.9052 15.5727 17.4595 15.317 18.0707C15.0613 18.6819 14.9296 19.3379 14.9296 20.0004C14.9296 20.6629 15.0613 21.3189 15.317 21.9301C15.5727 22.5413 15.9473 23.0956 16.4191 23.5607C16.8909 24.0259 17.4504 24.3926 18.0651 24.6397C18.6799 24.8867 19.3376 25.0091 20.0001 24.9997C21.3261 24.9997 22.5978 24.473 23.5354 23.5353C24.4731 22.5977 24.9998 21.3259 24.9998 19.9999C24.9998 18.6739 24.4731 17.4021 23.5354 16.4645C22.5978 15.5268 21.3261 15.0011 20.0001 15.0011ZM20.0001 17.001C20.3986 16.9936 20.7945 17.0658 21.1648 17.2132C21.5351 17.3606 21.8723 17.5803 22.1567 17.8595C22.4412 18.1387 22.6671 18.4718 22.8214 18.8393C22.9756 19.2068 23.0551 19.6013 23.0552 19.9999C23.0552 20.3984 22.9759 20.793 22.8217 21.1606C22.6676 21.5281 22.4418 21.8613 22.1574 22.1406C21.8731 22.4198 21.536 22.6397 21.1657 22.7872C20.7955 22.9347 20.3996 23.007 20.0011 22.9998C19.2055 22.9998 18.4424 22.6837 17.8799 22.1211C17.3173 21.5585 17.0012 20.7955 17.0012 19.9999C17.0012 19.2043 17.3173 18.4412 17.8799 17.8786C18.4424 17.3161 19.2055 17 20.0011 17L20.0001 17.001ZM25.2498 13.5011C24.9272 13.514 24.6221 13.6513 24.3984 13.8841C24.1748 14.1169 24.0498 14.4272 24.0498 14.7501C24.0498 15.0729 24.1748 15.3833 24.3984 15.6161C24.6221 15.8489 24.9272 15.9861 25.2498 15.999C25.5813 15.999 25.8992 15.8673 26.1336 15.6329C26.368 15.3985 26.4997 15.0806 26.4997 14.7491C26.4997 14.4176 26.368 14.0996 26.1336 13.8652C25.8992 13.6308 25.5813 13.4991 25.2498 13.4991V13.5011Z" fill="#F4F0E5"/>
</svg>
