<svg width="40" height="40" viewBox="0 0 40 40" fill="none" xmlns="http://www.w3.org/2000/svg">
<path d="M40 20C40 31.0457 31.0457 40 20 40C8.9543 40 0 31.0457 0 20C0 8.9543 8.9543 0 20 0C31.0457 0 40 8.9543 40 20ZM1.10243 20C1.10243 30.4368 9.56316 38.8976 20 38.8976C30.4368 38.8976 38.8976 30.4368 38.8976 20C38.8976 9.56316 30.4368 1.10243 20 1.10243C9.56316 1.10243 1.10243 9.56316 1.10243 20Z" fill="#D9D9D9"/>
<path d="M27.9486 22.5003C28.641 21.2711 29.0022 19.8995 29 18.507C29 13.8086 24.9706 10 20 10C15.0294 10 11 13.8086 11 18.507C10.9964 20.5138 11.7469 22.4566 13.1177 23.989L13.1282 24.0015C13.132 24.0045 13.1351 24.0085 13.1378 24.0115H13.1177L18.4584 29.3709C18.6563 29.5695 18.8952 29.7278 19.1603 29.836C19.4253 29.9442 19.711 30 19.9997 30C20.2885 30 20.5741 29.9442 20.8392 29.836C21.1043 29.7278 21.3431 29.5695 21.5411 29.3709L26.8823 24.0115H26.8622L26.8707 24.002L26.8718 24.001C26.9099 23.958 26.948 23.9149 26.9856 23.8709C27.3528 23.4443 27.6755 22.9851 27.9491 22.4998L27.9486 22.5003ZM20.0021 21.7597C19.1597 21.7597 18.3517 21.4433 17.756 20.8803C17.1603 20.3172 16.8257 19.5535 16.8257 18.7572C16.8257 17.9609 17.1603 17.1972 17.756 16.6341C18.3517 16.0711 19.1597 15.7547 20.0021 15.7547C20.8446 15.7547 21.6525 16.0711 22.2482 16.6341C22.8439 17.1972 23.1786 17.9609 23.1786 18.7572C23.1786 19.5535 22.8439 20.3172 22.2482 20.8803C21.6525 21.4433 20.8446 21.7597 20.0021 21.7597Z" fill="#F4F0E5"/>
</svg>
