<svg width="674" height="430" viewBox="0 0 674 430" fill="none" xmlns="http://www.w3.org/2000/svg">
<ellipse cx="337" cy="404" rx="337" ry="26" fill="#D9D9D9" fill-opacity="0.18"/>
<g opacity="0.6">
<rect x="158" y="128" width="328" height="260" stroke="#883B0A" stroke-opacity="0.12" stroke-width="12"/>
<rect x="174" y="147" width="296" height="222" fill="#E4E3E1" fill-opacity="0.5"/>
<path d="M292 280V270.88H272.38V261.16L289.42 236.2H296.62L278.62 262.72V265.06H292V254.8H298.42V280H292ZM321.977 280.6C319.217 280.6 316.817 280.06 314.777 278.98C312.777 277.9 311.217 276.4 310.097 274.48C308.977 272.52 308.417 270.24 308.417 267.64V248.56C308.417 245.92 308.957 243.64 310.037 241.72C311.157 239.8 312.737 238.3 314.777 237.22C316.817 236.14 319.217 235.6 321.977 235.6C324.777 235.6 327.177 236.14 329.177 237.22C331.217 238.3 332.777 239.8 333.857 241.72C334.977 243.64 335.537 245.92 335.537 248.56V267.64C335.537 270.24 334.977 272.52 333.857 274.48C332.737 276.4 331.157 277.9 329.117 278.98C327.117 280.06 324.737 280.6 321.977 280.6ZM321.977 275.02C324.217 275.02 325.997 274.34 327.317 272.98C328.677 271.62 329.357 269.84 329.357 267.64V248.56C329.357 246.36 328.677 244.58 327.317 243.22C325.997 241.86 324.217 241.18 321.977 241.18C319.737 241.18 317.937 241.86 316.577 243.22C315.257 244.58 314.597 246.36 314.597 248.56V267.64C314.597 269.84 315.257 271.62 316.577 272.98C317.937 274.34 319.737 275.02 321.977 275.02ZM321.977 261.82C320.857 261.82 319.937 261.46 319.217 260.74C318.537 260.02 318.197 259.08 318.197 257.92C318.197 256.8 318.537 255.9 319.217 255.22C319.937 254.5 320.857 254.14 321.977 254.14C323.097 254.14 323.997 254.5 324.677 255.22C325.397 255.9 325.757 256.8 325.757 257.92C325.757 259.08 325.397 260.02 324.677 260.74C323.997 261.46 323.097 261.82 321.977 261.82ZM363.953 280V270.88H344.333V261.16L361.373 236.2H368.573L350.573 262.72V265.06H363.953V254.8H370.373V280H363.953Z" fill="#883B0A" fill-opacity="0.63"/>
</g>
<rect x="156.648" y="369" width="15" height="21" transform="rotate(45 156.648 369)" fill="#F6F3F3"/>
<path d="M141.801 383.849L152.407 394.456L135.584 411.279C132.655 414.208 127.906 414.208 124.977 411.279C122.048 408.351 122.048 403.602 124.977 400.673L141.801 383.849Z" fill="#883B0A" fill-opacity="0.16"/>
<path d="M232 346C232 368.644 213.644 387 191 387C168.356 387 150 368.644 150 346C150 323.356 168.356 305 191 305C213.644 305 232 323.356 232 346ZM153.254 346C153.254 366.846 170.154 383.746 191 383.746C211.846 383.746 228.746 366.846 228.746 346C228.746 325.154 211.846 308.254 191 308.254C170.154 308.254 153.254 325.154 153.254 346Z" fill="#E5E4E4"/>
<circle cx="191" cy="346" r="33" fill="#F3EFEF" stroke="#E0DCD9" stroke-width="6"/>
<path d="M152 122L322 1.51562" stroke="#E7DACB" stroke-width="1.2"/>
<path d="M323 1.51562L492 122" stroke="#E7DACB" stroke-width="1.2"/>
<ellipse cx="322.5" cy="1.13665" rx="1.5" ry="1.13665" fill="#D9D9D9"/>
</svg>
