<svg width="24" height="26" viewBox="0 0 24 26" fill="none" xmlns="http://www.w3.org/2000/svg">
<g clip-path="url(#clip0_310_593)">
<path d="M12 0.272461C9.3488 0.275589 6.80708 1.33016 4.93239 3.20484C3.05771 5.07953 2.00314 7.62125 2.00001 10.2725C1.99684 12.439 2.70454 14.5468 4.01455 16.2724C4.01455 16.2724 4.28728 16.6315 4.33183 16.6834L12 25.727L19.6718 16.6788C19.7118 16.6306 19.9854 16.2724 19.9854 16.2724L19.9864 16.2697C21.2957 14.5448 22.0031 12.438 22 10.2725C21.9969 7.62125 20.9423 5.07953 19.0676 3.20484C17.1929 1.33016 14.6512 0.275589 12 0.272461ZM12 13.9088C11.2808 13.9088 10.5777 13.6955 9.97975 13.296C9.38175 12.8964 8.91567 12.3285 8.64044 11.664C8.36521 10.9996 8.2932 10.2684 8.43351 9.56303C8.57382 8.85765 8.92015 8.20971 9.42871 7.70116C9.93726 7.1926 10.5852 6.84627 11.2906 6.70596C11.996 6.56565 12.7271 6.63766 13.3916 6.91289C14.056 7.18812 14.624 7.6542 15.0235 8.2522C15.4231 8.85019 15.6364 9.55325 15.6364 10.2725C15.6352 11.2365 15.2517 12.1607 14.57 12.8424C13.8883 13.5241 12.9641 13.9076 12 13.9088Z" fill="white"/>
</g>
<defs>
<clipPath id="clip0_310_593">
<rect width="24" height="25.4545" fill="white" transform="translate(0 0.272461)"/>
</clipPath>
</defs>
</svg>
