<svg width="32" height="32" viewBox="0 0 32 32" fill="none" xmlns="http://www.w3.org/2000/svg">
<g clip-path="url(#clip0_310_603)">
<path d="M0 15.52C0 6.602 6.986 0 16 0C25.014 0 32 6.602 32 15.52C32 24.438 25.014 31.04 16 31.04C14.38 31.04 12.828 30.826 11.368 30.426C11.0849 30.3472 10.7833 30.3684 10.514 30.486L7.338 31.89C7.14618 31.9746 6.93652 32.0108 6.72744 31.9954C6.51835 31.98 6.31625 31.9135 6.13889 31.8017C5.96153 31.6899 5.81434 31.5363 5.71027 31.3543C5.60619 31.1723 5.54841 30.9676 5.542 30.758L5.454 27.912C5.44792 27.7388 5.40666 27.5686 5.33274 27.4118C5.25882 27.255 5.15378 27.1149 5.024 27C1.912 24.216 0 20.184 0 15.52ZM11.092 12.602L6.392 20.058C5.942 20.774 6.82 21.58 7.494 21.07L12.544 17.238C12.7101 17.1118 12.9128 17.0432 13.1213 17.0425C13.3299 17.0418 13.533 17.109 13.7 17.234L17.438 20.038C17.7032 20.2369 18.0068 20.3787 18.3295 20.4544C18.6522 20.5302 18.9872 20.5382 19.3132 20.4781C19.6392 20.418 19.9492 20.291 20.2237 20.1051C20.4982 19.9192 20.7312 19.6784 20.908 19.398L25.608 11.942C26.06 11.226 25.18 10.42 24.506 10.93L19.456 14.762C19.2899 14.8882 19.0872 14.9568 18.8787 14.9575C18.6701 14.9582 18.467 14.891 18.3 14.766L14.562 11.96C14.2968 11.7611 13.9932 11.6193 13.6705 11.5436C13.3478 11.4678 13.0128 11.4598 12.6868 11.5199C12.3608 11.58 12.0508 11.707 11.7763 11.8929C11.5018 12.0788 11.2688 12.3216 11.092 12.602Z" fill="#883B0A"/>
</g>
<defs>
<clipPath id="clip0_310_603">
<rect width="32" height="31.9989" fill="white"/>
</clipPath>
</defs>
</svg>
